<svg width="335" height="98" viewBox="0 0 335 98" fill="none" xmlns="http://www.w3.org/2000/svg">
<path d="M56.0231 4.13062H16.0183C5.37264 4.13062 0 9.29048 0 19.5108V74.2101C0 75.5498 0.720648 76.3746 2.27326 76.3746H14.3661C15.8132 76.3746 16.7448 75.5498 16.7448 74.2101V72.1332C16.7448 67.067 18.8833 64.3057 24.1974 63.7733H56.0231C67.6999 63.7733 72.9729 58.7188 72.9729 47.6736V20.2303C72.9729 9.18518 67.6999 4.13062 56.0231 4.13062ZM56.2457 43.0285C56.2457 49.0191 54.8864 50.2535 47.7503 50.2535H30.8004C23.6701 50.2535 19.1177 52.6287 16.739 57.2738V23.5357C16.739 18.8906 17.8756 17.6504 23.5587 17.6504H47.7503C54.8864 17.6504 56.2457 18.8906 56.2457 24.8754V43.0285Z" fill="#8257E5"/>
<path d="M111.32 34.3698C102.121 34.3698 98.1898 39.0149 98.1898 46.86V74.4144C98.1898 75.6546 97.5687 76.3742 96.1216 76.3742H85.1654C83.7182 76.3742 82.9976 75.6546 82.9976 74.4144V24.0501C82.9976 22.8099 83.7182 22.0844 85.1654 22.0844H94.3639C95.7114 22.0844 96.4321 22.8099 96.4321 24.0501V32.176C98.1898 25.4717 103.258 22.061 112.251 22.061H115.972C117.313 22.061 118.034 22.7865 118.034 24.0267V32.41C118.034 33.7497 117.313 34.3698 115.972 34.3698H111.32Z" fill="#8257E5"/>
<path d="M182.635 61.6132C182.635 71.8335 178.088 76.3733 167.237 76.3733H140.363C129.611 76.3733 124.959 71.8335 124.959 61.6132V36.8552C124.959 26.6408 129.611 22.0952 140.363 22.0952H167.237C178.088 22.0952 182.635 26.6408 182.635 36.8552V61.6132ZM167.443 40.769C167.443 35.3985 166.411 34.3689 160.002 34.3689H147.698C141.189 34.3689 140.152 35.3985 140.152 40.769V57.6936C140.152 63.0582 141.189 64.0937 147.698 64.0937H160.002C166.411 64.0937 167.443 63.0582 167.443 57.6936V40.769Z" fill="#8257E5"/>
<path d="M197.932 34.3701H192.759C191.411 34.3701 190.69 33.75 190.69 32.4103V24.0504C190.69 22.8101 191.411 22.0847 192.759 22.0847H197.926V15.3804C197.932 5.16011 203.305 0.000244141 213.95 0.000244141H226.664C228.111 0.000244141 228.732 0.725668 228.732 1.96006V10.32C228.732 11.6655 228.111 12.2798 226.664 12.2798H219.95C214.261 12.2798 213.124 13.52 213.124 18.1651V22.0847H226.664C228.111 22.0847 228.732 22.8101 228.732 24.0504V32.4103C228.732 33.75 228.111 34.3701 226.664 34.3701H213.124V74.4147C213.124 75.6549 212.404 76.3745 210.956 76.3745H200C198.553 76.3745 197.932 75.6549 197.932 74.4147V34.3701Z" fill="#8257E5"/>
<path d="M240.105 34.3701H234.943C233.602 34.3701 232.881 33.75 232.881 32.4103V24.0504C232.881 22.8101 233.602 22.0847 234.943 22.0847H240.117V15.3804C240.105 5.16011 245.489 0.000244141 256.123 0.000244141H268.837C270.284 0.000244141 270.905 0.725668 270.905 1.96006V10.32C270.905 11.6655 270.284 12.2798 268.837 12.2798H262.117C256.434 12.2798 255.297 13.52 255.297 18.1651V22.0847H268.837C270.284 22.0847 270.905 22.8101 270.905 24.0504V32.4103C270.905 33.75 270.284 34.3701 268.837 34.3701H255.297V74.4147C255.297 75.6549 254.571 76.3745 253.123 76.3745H242.167C240.72 76.3745 240.105 75.6549 240.105 74.4147V34.3701Z" fill="#8257E5"/>
<path d="M317.103 97.4294H294.569C284.445 97.4294 280.104 93.5098 280.104 83.8043V82.7747C280.073 82.4977 280.106 82.2175 280.2 81.9549C280.293 81.6924 280.444 81.4541 280.642 81.258C280.84 81.0618 281.08 80.9128 281.344 80.8219C281.608 80.731 281.889 80.7006 282.166 80.733H292.712C294.159 80.733 294.88 81.4584 294.88 82.7981V83.3129C294.88 85.378 296.022 86.2029 298.296 86.2029H311.32C317.519 86.2029 319.071 84.6585 319.071 79.3933V63.1122C316.693 67.7573 312.146 70.1324 305.01 70.1324H294.464C283.713 70.1324 278.955 65.5927 278.955 55.3724V24.0505C278.941 23.78 278.986 23.5097 279.086 23.2581C279.187 23.0065 279.34 22.7796 279.537 22.5929C279.733 22.4062 279.968 22.2641 280.224 22.1764C280.481 22.0887 280.754 22.0574 281.023 22.0848H292.085C293.427 22.0848 294.153 22.8102 294.153 24.0505V51.482C294.153 56.8466 295.29 57.8821 301.7 57.8821H309.556C316.376 57.8821 319.065 55.0916 319.065 49.4169V24.0505C319.065 22.8102 319.786 22.0848 321.134 22.0848H332.201C332.466 22.0593 332.733 22.0927 332.983 22.1825C333.233 22.2724 333.46 22.4164 333.648 22.6044C333.836 22.7924 333.979 23.0196 334.068 23.2696C334.158 23.5197 334.19 23.7863 334.164 24.0505V81.0196C334.158 91.8483 328.369 97.4294 317.103 97.4294Z" fill="#8257E5"/>
</svg>
